<svg width="14" height="14" viewBox="0 0 14 14" fill="none" xmlns="http://www.w3.org/2000/svg">
<path fill-rule="evenodd" clip-rule="evenodd" d="M9.02696 1.90385C7.87946 1.44038 6.60897 1.35963 5.41103 1.67407C4.21308 1.9885 3.15281 2.68099 2.39448 3.64522C2.35852 3.69102 2.31697 3.73217 2.27222 3.7671L4.4169 3.78108C4.82364 3.78418 5.15126 4.10636 5.14807 4.50153C5.14567 4.89669 4.81325 5.21498 4.40651 5.21188L0.73146 5.18782C0.533285 5.18626 0.343907 5.10785 0.206459 4.96888C0.0690099 4.82991 -0.00531033 4.64359 0.000294812 4.45105L0.114565 0.694373C0.126551 0.299984 0.466175 -0.01133 0.872098 0.000316412C1.27884 0.0119617 1.59847 0.341919 1.58649 0.737064L1.53615 2.4062C2.45989 1.38531 3.67285 0.648543 5.02729 0.292948C6.53996 -0.103766 8.14367 -0.00206843 9.59159 0.58252C11.0395 1.16633 12.2493 2.2012 13.0349 3.52414C13.8212 4.84782 14.14 6.38647 13.9434 7.90428C13.7469 9.42204 13.0453 10.835 11.9457 11.9249C10.8462 13.0148 9.4101 13.7206 7.85907 13.9326C6.30725 14.1453 4.72817 13.8511 3.36494 13.0973C2.00248 12.3434 0.931609 11.1719 0.317907 9.76432C0.158889 9.40022 0.333888 8.98021 0.707852 8.82648C1.08262 8.67199 1.51493 8.84201 1.67396 9.20612C2.1622 10.3256 3.01324 11.2556 4.09358 11.8534C5.17476 12.4512 6.42524 12.6841 7.65346 12.5156C8.88166 12.3479 10.0203 11.789 10.8938 10.9233C11.7664 10.0577 12.325 8.9343 12.4816 7.72553C12.6382 6.51677 12.3841 5.2917 11.7592 4.23974C11.1343 3.18701 10.173 2.36641 9.02642 1.9037L9.02696 1.90385Z" fill="#8D87C1"/>
</svg>
