<svg width="24" height="21" viewBox="0 0 24 21" fill="none" xmlns="http://www.w3.org/2000/svg">
<path d="M23.6303 16.9211L14.4187 1.36611C14.1747 0.951025 13.8225 0.606096 13.3978 0.366213C12.9731 0.12633 12.4909 0 12 0C11.5091 0 11.0269 0.12633 10.6022 0.366213C10.1775 0.606096 9.82533 0.951025 9.5813 1.36611L0.369678 16.9211C0.126515 17.3349 -0.000954401 17.8037 5.38014e-06 18.2805C0.000965161 18.7574 0.130321 19.2256 0.375147 19.6385C0.619974 20.0514 0.971698 20.3944 1.39517 20.6333C1.81865 20.8723 2.29905 20.9987 2.78837 21H21.2116C21.7009 20.9987 22.1813 20.8723 22.6048 20.6333C23.0283 20.3944 23.38 20.0514 23.6249 19.6385C23.8697 19.2256 23.999 18.7574 24 18.2805C24.001 17.8037 23.8735 17.3349 23.6303 16.9211ZM22.1465 18.8017C22.0538 18.9634 21.918 19.0977 21.7534 19.1904C21.5889 19.2831 21.4017 19.3308 21.2116 19.3283H2.78837C2.59832 19.3308 2.41112 19.2831 2.24656 19.1904C2.082 19.0977 1.94619 18.9634 1.85349 18.8017C1.7568 18.6438 1.70575 18.4633 1.70575 18.2793C1.70575 18.0954 1.7568 17.9149 1.85349 17.7569L11.0737 2.20195C11.1663 2.04197 11.3009 1.90884 11.4636 1.81621C11.6264 1.72357 11.8115 1.67476 12 1.67476C12.1885 1.67476 12.3736 1.72357 12.5364 1.81621C12.6991 1.90884 12.8337 2.04197 12.9263 2.20195L22.1465 17.7569C22.2432 17.9149 22.2943 18.0954 22.2943 18.2793C22.2943 18.4633 22.2432 18.6438 22.1465 18.8017ZM11.1423 13.3103V6.24742C11.1423 6.02574 11.2327 5.81314 11.3935 5.65639C11.5544 5.49964 11.7725 5.41158 12 5.41158C12.2275 5.41158 12.4456 5.49964 12.6065 5.65639C12.7673 5.81314 12.8577 6.02574 12.8577 6.24742V13.3103C12.8577 13.5319 12.7673 13.7445 12.6065 13.9013C12.4456 14.058 12.2275 14.1461 12 14.1461C11.7725 14.1461 11.5544 14.058 11.3935 13.9013C11.2327 13.7445 11.1423 13.5319 11.1423 13.3103ZM13.3123 16.4029C13.3123 16.6558 13.2353 16.9031 13.0911 17.1134C12.9469 17.3237 12.742 17.4876 12.5022 17.5844C12.2624 17.6812 11.9985 17.7065 11.744 17.6571C11.4894 17.6078 11.2556 17.486 11.0721 17.3072C10.8886 17.1283 10.7636 16.9004 10.7129 16.6524C10.6623 16.4043 10.6883 16.1472 10.7876 15.9135C10.8869 15.6798 11.0551 15.4801 11.2709 15.3396C11.4867 15.199 11.7405 15.124 12 15.124C12.3473 15.1262 12.6798 15.2617 12.9254 15.501C13.171 15.7404 13.31 16.0644 13.3123 16.4029Z" fill="#E1A148"/>
</svg>
